<svg id="Layer_1" enable-background="new 0 0 256 256" height="512" viewBox="0 0 256 256" width="512" xmlns="http://www.w3.org/2000/svg"><g><path d="m121.873 148.261h-17.939c0-13.995 0-23.474 0-39.383h-51.053v39.383h-17.889c-14.113 0-25.553 11.44-25.553 25.553v55.946h137.988c0-7.959 0-47.901 0-55.946-.001-14.113-11.441-25.553-25.554-25.553z" fill="#f9cfcf"/><path d="m78.432 130.324c-33.059 0-59.859-26.8-59.859-59.859v-25.072c0-8.31 6.736-15.046 15.046-15.046h104.672v40.118c.001 33.059-26.799 59.859-59.859 59.859z" fill="#4671c6"/><path d="m129.415 74.511v-4.774c0-27.903-22.826-50.523-50.982-50.523-28.157 0-50.982 22.62-50.982 50.523v4.774c-8.853-.18-15.876 6.873-15.876 15.398 0 9.103 7.947 16.303 17.223 15.322 5.261 22.353 25.481 39.006 49.636 39.006 24.157 0 44.375-16.655 49.636-39.006 9.263.98 17.223-6.207 17.223-15.322-.002-8.529-7.031-15.577-15.878-15.398z" fill="#f9cfcf"/><path d="m138.292 64.712h-79.986c-17.041 0-30.856-13.815-30.856-30.856 0-17.041 13.815-30.856 30.856-30.856h52.355c15.26 0 27.631 12.371 27.631 27.631z" fill="#4671c6"/><path d="m121.873 146.261h-15.939v-7.591s0 0-.001 0c11.401-6.836 20.049-17.875 23.671-31.353 4.366.067 8.655-1.568 11.925-4.51 3.662-3.294 5.762-7.996 5.762-12.899 0-4.692-1.854-9.094-5.221-12.393-.638-.625-1.322-1.185-2.033-1.699.155-1.796.254-3.592.254-5.352v-5.753-34.081c.001-16.338-13.291-29.63-29.63-29.63h-52.355c-16.928 0-30.904 12.87-32.665 29.339-5.545 2.941-9.068 8.724-9.068 15.054v25.072c0 1.76.099 3.555.254 5.352-.711.513-1.395 1.074-2.032 1.699-3.367 3.299-5.221 7.701-5.221 12.394 0 4.903 2.101 9.605 5.763 12.9 3.238 2.914 7.458 4.509 11.802 4.509h.121c3.617 13.457 12.244 24.483 23.621 31.322v7.621h-15.89c-15.193 0-27.553 12.36-27.553 27.553v55.946c0 1.104.896 2 2 2h137.988c1.104 0 2-.896 2-2v-55.946c0-15.194-12.36-27.554-27.553-27.554zm-63.567-141.261h52.355c14.133 0 25.63 11.498 25.63 25.63v32.081h-7.129c-2.419 0-71.762 0-70.858 0-6.797 0-14.023-2.528-19.66-7.762-19.391-18.101-6.091-49.949 19.662-49.949zm73.025 61.901c-.003-.064-.002-.126-.006-.19h4.966c0 3.996.022 4.991-.094 7.013-1.555-.608-3.319-1.006-4.783-1.141.001-3.036.02-3.805-.083-5.682zm-110.758-21.508c0-4.015 1.853-7.744 4.905-10.185.002.048.008.096.01.145.225 4.988 1.598 9.893 3.997 14.275-3.466 8.272-4.035 14.989-4.035 22.956-1.406.13-3.216.528-4.783 1.141-.062-1.095-.094-2.185-.094-3.26zm13.154 10.232-.011.011c.739.824 2.231 2.308 3.004 2.979l.011-.012c1.649 1.44 3.552 2.786 5.223 3.746l.006-.01c.002.001.004.002.006.004l-.006.011c4.836 2.767 10.46 4.359 16.346 4.359h69.001c.065 1.038.107 1.924.107 3.026v4.773c0 1.181 1.018 2.054 2.041 2 2.518-.055 5.134.599 7.445 2.026.015.009.032.012.047.021.829.517 1.611 1.118 2.323 1.816 2.593 2.541 4.021 5.927 4.021 9.536 0 3.771-1.617 7.389-4.437 9.926-2.861 2.574-6.719 3.812-10.575 3.408-1.004-.108-1.926.551-2.157 1.53-5.192 22.059-24.803 37.465-47.689 37.465-22.887 0-42.497-15.406-47.689-37.464-.214-.911-1.027-1.542-1.945-1.542-.07 0-.141.003-.212.011-3.859.405-7.714-.833-10.574-3.406-2.821-2.539-4.438-6.157-4.438-9.927 0-3.609 1.428-6.996 4.021-9.537 2.658-2.604 6.279-3.935 9.815-3.861 1.017.05 2.041-.81 2.041-2 0-5.761-.34-12.014 2.738-20.734.522.643.904 1.131 1.537 1.845zm111.699 172.135h-17.465v-36.397c0-1.104-.896-2-2-2s-2 .896-2 2v36.397h-91.058v-36.397c0-1.104-.896-2-2-2s-2 .896-2 2v36.397h-17.465v-53.946c0-12.987 10.566-23.553 23.553-23.553h17.89c1.104 0 2-.896 2-2v-7.442c7.125 3.485 15.132 5.419 23.551 5.419 8.399 0 16.388-1.924 23.501-5.394v7.417c0 1.104.896 2 2 2h17.939c12.987 0 23.553 10.566 23.553 23.553v53.946z" fill="#3762cc"/><g fill="#3762cc"><path d="m60.52 81.958c-.781-.781-2.048-.781-2.828 0l-5.74 5.74-5.74-5.74c-.781-.781-2.048-.781-2.828 0-.781.781-.781 2.047 0 2.828l5.74 5.74-5.74 5.74c-.781.781-.781 2.047 0 2.828s2.047.782 2.828 0l5.74-5.74 5.74 5.74c.781.781 2.047.782 2.828 0 .781-.781.781-2.047 0-2.828l-5.74-5.74 5.74-5.74c.781-.78.781-2.047 0-2.828z"/><path d="m107.729 89.794 5.74-5.74c.781-.781.781-2.047 0-2.828s-2.048-.781-2.828 0l-5.74 5.74-5.74-5.74c-.781-.781-2.048-.781-2.828 0-.781.781-.781 2.047 0 2.828l5.74 5.74-5.74 5.74c-.781.781-.781 2.047 0 2.828s2.047.782 2.828 0l5.74-5.74 5.74 5.74c.781.781 2.047.782 2.828 0 .781-.781.781-2.047 0-2.828z"/><path d="m78.426 111.875c-5.419 0-9.694 1.997-12.469 4.793-.778.784-.773 2.051.011 2.829s2.05.772 2.829-.011c2.103-2.12 5.381-3.61 9.629-3.61 1.674 0 3.104.187 4.369.572 2.104.64 3.923 1.691 5.26 3.039.391.394.905.591 1.42.591.509 0 1.019-.193 1.409-.58.784-.778.789-2.044.011-2.829-2.791-2.814-7.064-4.794-12.469-4.794z"/></g><path d="m243.232 48.713-19.1 12.568c-1.319.868-1.282 2.816.069 3.633l4.486 2.712-40.021 63.233-16.223-43.283c-.929-2.479-3.135-4.248-5.757-4.617-2.62-.368-5.23.723-6.807 2.85l-16.1 21.707c-1.316 1.774-.944 4.28.83 5.596 1.774 1.315 4.28.945 5.596-.83l15.248-20.559 16.271 43.409c.969 2.584 3.276 4.366 6.022 4.649.253.026.506.039.757.039 2.463 0 4.748-1.244 6.087-3.361l40.945-64.693 5.511 3.332c1.352.817 3.094-.055 3.249-1.627l2.255-22.752c.178-1.798-1.809-3-3.318-2.006z" fill="#4671c6"/><g><g><path d="m146.993 175.605c-1.657 0-3-1.343-3-3v-11.287c0-1.657 1.343-3 3-3s3 1.343 3 3v11.287c0 1.657-1.344 3-3 3zm0-22.574c-1.657 0-3-1.343-3-3v-11.287c0-1.657 1.343-3 3-3s3 1.343 3 3v11.287c0 1.657-1.344 3-3 3z" fill="#6bdddd"/></g><g><path d="m146.993 130.458c-1.657 0-3-1.343-3-3v-5.5c0-1.657 1.343-3 3-3s3 1.343 3 3v5.5c0 1.657-1.344 3-3 3z" fill="#6bdddd"/></g></g><g><path d="m138.292 217.78h-59.866c-1.657 0-3-1.343-3-3v-25.063c0-1.657 1.343-3 3-3s3 1.343 3 3v22.063h56.865c1.657 0 3 1.343 3 3s-1.343 3-2.999 3z" fill="#3762cc"/></g><circle cx="78.432" cy="188.318" fill="#4671c6" r="9.667"/><path d="m143.762 251.843c1.933 1.545 4.679 1.542 6.608-.007l36.878-29.607c9.947-7.952 13.443-22.113 8.446-34.219-5.424-13.143-19.206-19.962-32.18-15.923-7.412 2.307-13.29 7.782-16.534 14.754-3.243-6.972-9.121-12.447-16.533-14.754-13.713-4.268-28.327 3.592-33.023 18.228-3.768 11.743.302 24.729 9.64 32.193z" fill="#f9a7a7"/><g><path d="m147.062 255.012c-1.604 0-3.209-.535-4.549-1.606l-36.696-29.334c-10.149-8.114-14.287-21.925-10.295-34.366 5.002-15.592 20.606-24.168 35.521-19.527 6.553 2.04 12.203 6.5 15.939 12.476 3.736-5.977 9.386-10.437 15.939-12.476 13.932-4.335 28.817 3.002 34.623 17.071 5.356 12.976 1.636 28.003-9.046 36.543l-36.875 29.605c-1.342 1.075-2.952 1.614-4.561 1.614zm-24.202-82.087c-10.383 0-19.994 6.98-23.53 18.001-3.488 10.872.123 22.936 8.984 30.021l36.696 29.334c1.21.968 2.9.965 4.107-.004l36.878-29.607c9.305-7.438 12.531-20.553 7.85-31.896-5.01-12.141-17.792-18.495-29.737-14.777-6.648 2.069-12.23 7.059-15.314 13.688-.328.706-1.036 1.157-1.813 1.157s-1.485-.451-1.813-1.157c-3.083-6.629-8.666-11.619-15.314-13.688-2.329-.726-4.682-1.072-6.994-1.072z" fill="#3762cc"/></g><g><path d="m144.768 221.8-2.91-23.148c-.65-3.232 1.784-6.283 5.953-6.283 3.661 0 6.502 2.32 5.952 6.349l-2.976 23.081c-.186 2.116-1.468 3.108-2.976 3.108-1.74.001-2.803-1.261-3.043-3.107zm-2.58 12.235c0-3.228 2.294-5.688 5.622-5.688 3.285 0 5.621 2.411 5.621 5.688 0 3.231-2.294 5.688-5.621 5.688-3.333 0-5.622-2.464-5.622-5.688z" fill="#e0ebfc"/></g></g></svg>